<svg xmlns="http://www.w3.org/2000/svg" width="1240" height="1240"><path d="M618.599 401.839c-.321.52-1.046 13.706-1.611 29.303-2.531 69.902-3.002 81.209-3.95 94.858-.555 7.975-1.015 19.311-1.023 25.191-.008 5.88-.43 10.948-.938 11.261-.507.314-3.32 1.015-6.25 1.558-8.084 1.499-19.117 7.394-26.152 13.976l-6.233 5.83-8.471-.826c-4.659-.455-15.221-1.334-23.471-1.954-8.25-.62-22.2-1.768-31-2.552-39.048-3.477-50.871-4.491-64-5.484a7529.43 7529.43 0 01-19.831-1.523c-4.359-.346-5.728-.15-5.423.78.225.684 1.724 1.359 3.331 1.502 1.608.142 6.973.941 11.923 1.775 19.141 3.226 27.554 4.593 43 6.987 24.15 3.742 35.133 5.474 44.5 7.018 4.675.77 11.875 1.894 16 2.496 8.793 1.285 24.327 4.16 24.893 4.607.215.17-.087.887-.672 1.592-2.967 3.575-7.221 20.284-7.221 28.363v5.099l-10.25-.349c-10.106-.343-42.932-1.986-96.75-4.841-15.125-.802-38.3-1.93-51.5-2.506-13.2-.576-36.375-1.702-51.5-2.502l-56-2.961c-15.675-.829-39.075-1.975-52-2.548-60.925-2.699-134.293-6.953-135.101-7.834-1.671-1.819-3.897-13.715-3.878-20.721.038-14.401 6.107-27.182 19.167-40.368 21.191-21.395 55.03-37.348 106.312-50.119 19.057-4.746 23.553-5.754 31-6.952 3.85-.62 10.375-1.751 14.5-2.514 22.52-4.168 50.958-7.301 96-10.578 35.668-2.594 112.719-2.176 142.884.776 5.22.511 6.299.369 5.919-.777-.357-1.08-3.889-1.546-15.383-2.03-8.206-.345-26.62-1.192-40.92-1.882-47.442-2.289-112.004.019-171 6.113-23.985 2.478-67.433 9.453-83.5 13.406-3.025.744-7.75 1.861-10.5 2.481-15.853 3.579-44.711 12.237-55 16.501-1.65.684-6.15 2.505-10 4.046-14.63 5.858-42.607 20.862-45.5 24.403-.275.336-2.525 2.149-5 4.028-20.393 15.484-31.729 35.34-31.936 55.936L46 606.309l-12.25-.635c-6.738-.349-17.087-.937-23-1.306-9.266-.579-10.75-.461-10.75.855 0 1.952 2.928 2.518 19.875 3.841 7.494.585 16.775 1.597 20.625 2.25 6.336 1.073 7.03 1.423 7.314 3.686.864 6.867 8.179 22.005 15.315 31.69 23.607 32.04 77.879 68.228 142.871 95.266 6.875 2.86 13.4 5.602 14.5 6.094 2.934 1.313 12.609 5.05 15.5 5.989 1.375.446 4.975 1.768 8 2.937 3.025 1.17 7.525 2.813 10 3.651 2.475.839 8.1 2.795 12.5 4.348 11.953 4.217 50.649 16.111 63 19.364 1.1.289 4.475 1.244 7.5 2.121 3.025.877 7.3 1.984 9.5 2.46s9.4 2.272 16 3.99c6.6 1.718 14.925 3.775 18.5 4.572 3.575.796 9.65 2.156 13.5 3.021 10.211 2.296 15.375 3.391 21 4.451 2.75.518 10.175 2.027 16.5 3.352 6.325 1.326 14.875 2.965 19 3.642s10.875 1.847 15 2.6c10.913 1.992 24.349 4.181 33.5 5.459 4.4.615 12.275 1.739 17.5 2.498 16.106 2.339 32.002 4.346 43.5 5.491 6.05.602 16.85 1.728 24 2.502 31.28 3.385 75.532 6.168 119.335 7.505 71.453 2.181 162.711-4.262 220.165-15.544 4.125-.81 11.1-2.166 15.5-3.014 4.4-.847 9.575-1.939 11.5-2.425 1.925-.487 6.65-1.637 10.5-2.557 59.235-14.147 107.074-38.193 127.814-64.245 15.849-19.908 19.325-42.99 9.898-65.718-6.586-15.877-23.73-36.797-42.962-52.421-2.888-2.346-5.25-4.641-5.25-5.1 0-.85 1.701-1.08 22-2.973 6.325-.59 17.35-1.72 24.5-2.51 24.735-2.733 41.05-4.429 53-5.508 6.6-.596 18.075-1.716 25.5-2.489 7.425-.773 20.7-2.119 29.5-2.991 36.733-3.639 35.5-3.436 35.5-5.841 0-.921-2.364-1.038-9.75-.484-5.362.403-19.875 1.194-32.25 1.758-12.375.564-30.6 1.477-40.5 2.028-9.9.552-31.5 1.696-48 2.543-16.5.847-40.756 2.174-53.903 2.949l-23.903 1.408-8.097-5.271c-4.453-2.899-10.797-6.773-14.097-8.609-3.3-1.836-8.7-4.833-12-6.662-14.877-8.241-37.368-18.838-59-27.797-8.8-3.645-16.9-7.019-18-7.498-1.1-.48-5.375-2.065-9.5-3.523-4.125-1.458-8.625-3.12-10-3.694-3.251-1.355-40.593-13.834-44.5-14.87-1.65-.438-5.839-1.696-9.31-2.797l-6.31-2.001.31 2.038c.247 1.625 2.234 2.641 9.81 5.012 5.225 1.636 10.918 3.611 12.651 4.389 1.733.778 3.63 1.414 4.216 1.414.586 0 2.543.647 4.349 1.437 2.985 1.306 9.068 3.63 26.317 10.053 3.318 1.235 8.718 3.467 12 4.959 3.282 1.492 6.867 3.09 7.967 3.551 17.973 7.537 51.177 24.874 64.253 33.55l5.6 3.718c1.019.678 5.519 3.932 10 7.232l8.147 6-7 .626c-3.85.344-11.05.668-16 .721-4.95.052-20.7.776-35 1.608-33.28 1.936-77.687 4.237-107 5.545-23.45 1.046-59.672 2.893-108 5.507-14.85.803-32.175 1.58-38.5 1.727l-11.5.266-.649-7.5c-.826-9.536-2.23-15.539-5.216-22.29l-2.373-5.368 9.119-1.651c5.015-.909 12.044-2.089 15.619-2.623 7.386-1.103 22.249-3.454 35.5-5.615 4.95-.807 16.2-2.586 25-3.952 25.473-3.957 35.487-5.596 43.357-7.097 4.046-.772 8.622-1.404 10.168-1.404 3.445 0 5.975-.904 5.975-2.135 0-.516-2.749-.702-6.25-.425-3.437.273-12.55.972-20.25 1.553-7.7.58-21.2 1.704-30 2.497-26.23 2.363-50.093 4.394-65.5 5.574-7.975.611-18.312 1.481-22.971 1.932l-8.471.82-6.233-5.83c-7.035-6.582-18.068-12.477-26.152-13.976-2.93-.543-5.743-1.244-6.25-1.558-.508-.313-.911-4.706-.896-9.761.014-5.055-.65-22.916-1.477-39.691-2.574-52.208-3.58-76.094-3.684-87.5-.132-14.509-1.095-23.754-2.524-24.224-.637-.21-1.422.044-1.743.563M.079 605.583c.048 1.165.285 1.402.604.605.289-.722.253-1.585-.079-1.917-.332-.332-.568.258-.525 1.312M108 618.399c0 .741 3.107 5.808 4.047 6.601.326.275 2.41 2.975 4.631 6 4.89 6.659 16.314 17.951 25.822 25.523 8.21 6.539 27.085 19.477 28.414 19.477.505 0 1.069.358 1.253.796.183.437 4.158 2.932 8.833 5.545 4.675 2.612 9.175 5.162 10 5.667 8.709 5.333 51.183 24.801 65.5 30.022a749.966 749.966 0 0110.5 3.944c9.217 3.553 29.011 10.329 51 17.458 10.581 3.431 44.856 13.005 52 14.526 1.925.41 5.3 1.26 7.5 1.889 4.482 1.283 22.073 5.376 46 10.704 3.3.735 8.925 1.854 12.5 2.486 3.575.632 9.425 1.751 13 2.488 8.579 1.767 21.817 4.133 30.5 5.451 3.85.585 11.05 1.714 16 2.51 15.132 2.434 28.583 4.386 37.5 5.443 4.675.555 14.125 1.684 21 2.509 88.377 10.612 179.824 12.523 264.5 5.527 28.055-2.318 68.469-8.323 91.5-13.596 3.575-.819 8.525-1.938 11-2.488 6.63-1.473 15.944-3.905 20.5-5.352 2.2-.698 6.025-1.838 8.5-2.533 2.475-.695 6.75-2.055 9.5-3.023 54.555-19.198 83.79-42.046 90.892-71.037 2.111-8.617 2.029-12.921-.43-22.498-3.452-13.445-10.744-26.04-22.087-38.148l-4.625-4.937-6.875.777c-3.781.428-13.175 1.484-20.875 2.347-7.7.864-17.375 2.013-21.5 2.553-4.125.541-9.014.98-10.864.977-1.85-.004-7.925.652-13.5 1.457-9.433 1.363-22.475 2.948-45.636 5.546-5.225.586-14.45 1.707-20.5 2.491-14.524 1.883-33.71 4.299-40.249 5.069-2.887.339-5.46.96-5.719 1.378-.259.419.685 1.839 2.096 3.157 11.87 11.078 8.641 32.398-6.128 40.471-9.31 5.089-22.503 3.33-29.809-3.976-5.722-5.722-7.193-9.54-7.165-18.6.024-7.548.335-8.979 2.779-12.776 2.74-4.255 2.742-4.274.474-3.783-1.253.272-7.679 1.196-14.279 2.054-11.455 1.489-20.303 2.88-38 5.973-4.4.769-11.375 1.915-15.5 2.547-4.125.632-10.425 1.748-14 2.479-5.83 1.194-13.23 2.666-28.5 5.672-14.399 2.834-30.82 7.465-37.268 10.51-11.064 5.225-21.149 7.603-32.232 7.601-12.114-.003-19.213-1.737-33-8.064-6.079-2.79-23.781-7.623-37.5-10.239-3.3-.629-8.925-1.741-12.5-2.471-10.695-2.185-22.125-4.356-28.5-5.416-3.3-.548-10.163-1.692-15.25-2.542-5.087-.85-13.187-2.201-18-3.002a696.811 696.811 0 00-17.25-2.611c-4.675-.635-10.75-1.514-13.5-1.954-2.75-.441-5.168-.635-5.374-.432-.206.203.612 2.04 1.817 4.083 6.818 11.555 2.169 27.986-9.817 34.696-4.593 2.571-6.411 3.005-12.5 2.985-8.627-.028-13.754-2.377-19.543-8.952-8.373-9.513-7.76-25.808 1.289-34.253 1.411-1.318 2.355-2.738 2.096-3.157-.259-.418-2.832-1.039-5.719-1.378-6.539-.77-25.725-3.186-40.249-5.069-6.05-.784-15.275-1.902-20.5-2.485-10.565-1.178-28.555-3.325-46-5.49a1153.08 1153.08 0 00-22.5-2.527c-6.05-.605-16.4-1.728-23-2.496-6.6-.767-18.525-2.114-26.5-2.993-7.975-.879-19.9-2.223-26.5-2.987-6.6-.765-17.4-1.887-24-2.494-6.6-.606-17.4-1.737-24-2.512-6.6-.774-15.15-1.651-19-1.947-3.85-.296-9.138-.832-11.75-1.19-2.612-.359-4.75-.35-4.75.019" fill="undefined" fill-rule="evenodd"/></svg>